<?xml version="1.0" encoding="utf-8"?>
<!-- Generator: Adobe Illustrator 19.2.1, SVG Export Plug-In . SVG Version: 6.00 Build 0)  -->
<svg version="1.1" id="Layer_1" xmlns="http://www.w3.org/2000/svg" xmlns:xlink="http://www.w3.org/1999/xlink" x="0px" y="0px"
	 viewBox="0 0 141.3 116.2" style="enable-background:new 0 0 141.3 116.2;" xml:space="preserve">
<style type="text/css">
	.st0{fill:#FFFFFF;}
</style>
<path class="st0" d="M73.3,0c13.4,0,26,4.8,37.9,14.5c5.3,4.9,8.4,8.3,9.3,10.3c2.8,3.6,4.8,6.9,6.1,10l0.2,0.5h0.2
	c2.6-3.2,5.1-4.8,7.5-4.8h0.3c3.2,0,5.4,2.6,6.4,7.7l0.2,1.8v2.4c0,5.5-2.3,10.9-6.7,16l-1.1,0.8h-0.1c-0.9,7.5-2.3,13.6-4.3,18.1
	c-6.3,15.1-16.9,26.2-31.6,33.3c-8.4,3.7-16.8,5.6-25.2,5.6h-1.5c-15.3,0-29.1-5.6-41.5-16.7c-5.7-5.8-9.6-10.9-11.8-15.1
	c-3.5-7.1-5.2-11.4-5.2-12.8c-0.7-1.9-1.4-4.8-2-8.6c-2.4-1-4.8-3.2-7.1-6.6C1.1,52.1,0,48.2,0,44.4V43c0-4.9,1.5-8.1,4.4-9.7
	c0.6-0.4,1.3-0.5,2.1-0.5h0.3c2.6,0,5.4,1.9,8.4,5.8h0.2c1.6-5.4,5.5-11.7,11.8-19c4.7-4.7,9-8.3,13-10.7C50.5,2.9,60.5,0,70.3,0
	H73.3z M8.9,55.8l1,0.9l-0.1-1.9l0.1-7.2c-0.2-0.5-0.4-0.9-0.5-0.9l-0.2,0.3v0.1l0.5,1.4H9.5c-0.9,0-1.5-0.9-1.9-2.7l-0.8-4l0.4-0.3
	h0.4c0.8,0,2.6,1.2,5.6,3.7l0.3-1.1c-3-4.4-5.4-6.5-6.8-6.5H6.5c-1.2,0.7-1.7,2.9-1.7,6.4C4.8,47.9,6.1,51.8,8.9,55.8z M10.3,61.9
	v-0.2l-0.2-2c-0.2,0-0.4,0.4-0.5,1.1C9.7,61.5,10,61.9,10.3,61.9z M54.5,29.2c-5.6,3.1-14.6,6.3-26.9,9.5c-1.9,0.3-2.8,0.7-2.8,1.2
	c-2.9,6.5-4.3,13.5-4.3,20.7l0.2,4.7l-0.4,0.1c1.5,7.8,5.5,15.7,12.1,23.7c5.1,5.1,9.3,8.4,12.5,10.1c2.6,1.5,4.7,2.5,6.3,3.1
	L43,83.5c5.8,7.5,10.2,11.3,13.4,11.3h0.2c0.9,0,3.5-0.8,8.1-2.3c2.6-0.7,5.1-1.1,7.3-1.1h0.4c2.3,0,5.5,0.7,9.8,2.1
	c1.2,0.3,2.6,0.5,4.1,0.5c3.7,0,7.9-2.7,12.8-8.1v0.3L91.4,103h0.2c4-1.6,7.7-3.8,11.1-6.5c4.3-3,8.3-7.1,12.1-12.5
	c4.3-5.8,7.3-13.4,8.9-22.6c-0.4,0-0.6-0.2-0.6-0.7c0-9.5-2.5-18.4-7.4-26.8c-1.2,1.6-3.1,2.7-5.6,3.5c-2.8,0.8-5.5,1.2-8.2,1.2
	h-1.3v-0.2c2.8-1,5.1-3.3,6.7-6.7c0.4-1.2,0.5-2.2,0.5-3.2c0-2.3-2.2-3.9-6.5-4.7c-2.4-0.3-4.5-0.5-6.3-0.5l-7.9,0.1
	c-4.3,0-10.8-1.8-19.7-5.4C65.8,21.6,61.4,25.4,54.5,29.2z M38,64c-1.6,0-2.5,0.8-2.5,2.4v0.9h-0.3l-0.5-1.7v-0.4
	c0-1.2,0.5-1.8,1.5-1.8C37.4,63.5,38,63.7,38,64z M37.2,66l0.5,0.5v0.2l-0.5-0.5V66z M106.9,67.5v0.2c-1.6,3.8-5.1,6.9-10.4,9.2
	c-0.3,0-1.6,0.9-3.7,2.7c-5.8,3.6-12.4,5.4-19.9,5.4c-8.4,0-15.5-2.1-21.3-6.2c-3.7-1-6.4-2.7-8-5.1c-1.2-1.6-2.7-3.7-4.8-5.9v-0.1
	h0.2c6.1,5.4,11.5,8,16,8h0.9c5.9-0.5,8.9-1.2,8.9-2l-0.2-0.2v-0.2h0.2c4.3,1.2,7,1.7,8.2,1.7h0.1c1.5,0,4.1-0.5,7.9-1.6
	c4.7,1.9,8.1,2.8,10.3,2.8h0.5c2.9,0,6.6-1.6,11.4-5c1.2-1,2.5-2.3,3.7-3.7H106.9z M53.9,34.6c5.4,0,9.6,2.6,12.8,8
	c1.1,2.2,1.6,4,1.6,5.5v2.4c0,4.4-2.6,8.5-7.6,12c-2.5,1.2-4.9,1.8-7.2,1.8c-5.3,0-9.6-2.6-12.8-7.6c-1.2-2.5-1.9-5-1.9-7.5
	c0-5,2.4-9.2,7.3-12.5c2.6-1.3,5-2,7.4-2H53.9z M46.3,49.1V50c0,3,1.9,5.2,5.6,6.7l1.5,0.1h0.8c3.3,0,5.5-1.9,6.7-5.8l0.2-1.3v-0.5
	c0-3.3-1.9-5.6-5.6-6.9l-1.9-0.2c-3.4,0-5.8,1.9-7.1,5.8L46.3,49.1z M54.1,49.6V50c-0.1,2.8-0.3,4.2-0.7,4.2h-0.2
	c-0.4,0-0.6-1.1-0.7-3.3v-1.3c0.1-2.7,0.3-4,0.8-4C53.8,45.5,54.1,46.9,54.1,49.6z M75.2,61.3v1.5c0,0.8-0.5,1.4-1.6,1.9l-0.3,0.2
	l-0.1-0.4l0.1-0.4l-3,2c-1.9-1-3-1.5-3.3-1.5l-0.2,0.4h-0.4l-1.5-2.4v-0.2c2.2-1.9,4-2.9,5.6-2.9C71.8,59.6,73.4,60.2,75.2,61.3z
	 M70.1,78.2L66,79v0.2c3.8,0.5,6.3,0.8,7.5,0.8h0.7c1.2,0,3.6-0.4,7.1-1.1v-0.2L79,77.7c-2.6,1-4.5,1.5-5.8,1.5
	C72.6,79.2,71.6,78.9,70.1,78.2z M100.8,43.3c1.2,2.4,1.7,4.8,1.7,7.2c0,5.8-2.9,10.2-8.6,13.4c-2,0.9-4,1.3-5.8,1.3H87
	c-4.8,0-8.9-2.6-12.5-7.9c-1.2-2.6-1.7-4.9-1.7-6.9c0-5.2,2.5-9.5,7.5-12.8c2.6-1.3,5.1-2,7.5-2C93.1,35.5,97.4,38.1,100.8,43.3z
	 M78.3,79.9v0.2h0.5v-0.2H78.3z M79.9,79.8v0.2h0.5v-0.2H79.9z M80.3,50.9c0,3,1.8,5.2,5.4,6.5c0.3,0.2,0.8,0.2,1.5,0.2h1.3
	c3,0,5.1-1.9,6.5-5.8v-2.3c0-2.7-1.7-4.8-5.2-6.3L87.5,43h-0.2c-3.3,0-5.5,1.9-6.8,5.7L80.3,50.9z M81.4,79.7L81.4,79.7l0.5,0.1
	v-0.1H81.4z M88.2,50.6c-0.1,2.9-0.3,4.3-0.8,4.3h-0.2c-0.4,0-0.6-1.4-0.8-4.3c0.2-2.9,0.5-4.4,0.9-4.4
	C87.9,46.2,88.1,47.7,88.2,50.6z M108.6,64.8c0.8,0,1.2,0.5,1.3,1.6v0.5l-0.5,2h-0.2v-0.2c0-2.3-0.6-3.3-1.9-3.3h-0.6v-0.2
	L108.6,64.8z M129.6,41.8c1.9-1.6,3.4-2.4,4.3-2.4h0.2l0.4,0.4c-0.7,4.4-1.5,6.5-2.4,6.5h-0.2l-0.2-0.1l0.5-1.4l-0.2-0.1h-0.2
	c-0.3,0-0.5,0.9-0.8,2.8l0.9,5.6h0.6c2.6-3.5,3.9-7.4,3.9-11.8v-0.9c0-2.3-0.5-4-1.7-5.2h-0.3c-1,0-2.9,1.6-5.6,5
	C129.2,41.3,129.4,41.8,129.6,41.8z"/>
</svg>
