<?xml version="1.0" encoding="utf-8"?>
<!-- Generator: Adobe Illustrator 19.2.1, SVG Export Plug-In . SVG Version: 6.00 Build 0)  -->
<svg version="1.1" id="Layer_1" xmlns="http://www.w3.org/2000/svg" xmlns:xlink="http://www.w3.org/1999/xlink" x="0px" y="0px"
	 viewBox="0 0 131.1 116.2" style="enable-background:new 0 0 131.1 116.2;" xml:space="preserve">
<style type="text/css">
	.st0{fill:#FDFDFE;}
</style>
<path class="st0" d="M68.3,0.1c2.2,0,4.2,1.4,5.8,4.1C74.5,5,74.7,5.6,74.7,6c1.8-2.7,3.9-4,6.5-4c3.5,0,5.8,2.3,7.2,6.8V9
	c1.6-1.6,3.2-2.4,5-2.4h0.8c2.8,0,4.9,1.9,6.5,5.8l0.2,1.8v1c0,0.6-0.2,1.5-0.5,2.7c1.6-1.3,3.2-2,4.8-2c3.3,0,5.7,2.2,7.2,6.6
	l0.2,1.8c0,0.8-0.2,1.6-0.4,2.5l2.8-0.6c2.8,0,5.1,1.6,6.7,4.9c0.4,1.2,0.6,2.2,0.6,3.4c0,1.2-0.3,2.5-0.8,3.9h0.2
	c1.2-0.7,2.2-1,3.2-1c3,0,5.1,2.4,6.1,7.1l0.1,1.6v2.6c0,3.5-1.3,7.5-3.9,12.1c-1.3,1.6-2.7,3-4.2,4.1l-0.3,1.1
	c-0.5,0-0.8,0.3-0.8,0.9c-1.3,8.9-4.1,16.4-8.2,22.8c-7.2,11.2-17.2,19-29.9,23.5c-5.8,2-11.8,3-18,3h-0.1
	c-16.8,0-31.2-6.7-43.3-20.1c-6-7.5-9.9-15.3-11.9-23.6l-0.9-4.9C6,66,3.3,62.9,1.5,58c-1-2.7-1.5-5.2-1.5-7.5v-1.6
	c0-4.8,1.7-7.8,5.1-9.2l1.2-0.1c0.5,0,1.4,0.2,2.5,0.6v-0.8c0-3.8,1.8-6.5,5.5-8.1l1.6-0.2l-0.2-1.8v-0.5c0-3,1.5-5.4,4.6-7.2
	c1.2-0.4,2.1-0.6,2.8-0.6l1.5,0.2v-1c0-3.2,1.7-5.7,5.1-7.3l2-0.4h0.8c1,0,2.2,0.4,3.5,1.2c0-2.8,1.5-5.2,4.5-6.8
	c1.1-0.4,2-0.6,2.8-0.6c1.5,0,3.2,0.7,4.8,2.1c0-1.2,0.9-2.8,2.8-4.7C52.4,2.5,53.9,2,55.5,2c1.9,0,3.8,0.9,5.6,2.8
	c1.6-3.2,3.6-4.7,6.2-4.7H68.3z M4.5,49.7c0,4.5,1.5,8.6,4.5,12.2v-2.5c0.1-0.2,0.4-0.4,1-0.4h0.8l0.2-0.2v-0.1
	c-0.8-1.2-1.3-2.5-1.5-4.2c-0.2-1-0.5-1.5-0.6-1.5H8.5V53l0.5,1.4H8.9c-1.1,0-1.8-1.5-2.2-4.6l-0.4-1.5l0.5-0.4c1,0,2.8,1.1,5.5,3.3
	l0.2-0.8c-2.8-4.2-5-6.3-6.6-6.3C4.9,45.3,4.5,47.2,4.5,49.7z M82.3,21.2c0,3.1-1.6,5.5-4.8,7.2c-0.9,0.3-1.8,0.5-2.5,0.5
	c-1.3,0-2.5-0.4-3.7-1.1c-1.5,2.7-3.7,4.1-6.6,4.1c-2.7,0-4.8-1.7-6.5-5v-0.1c-1.5,1.2-2.9,1.8-4.5,1.8c-2.6,0-4.8-1.5-6.5-4.6
	l-0.8-1.8c-2.6,1-6.3,3.5-11.2,7.2C24.4,39.5,19,51.5,19,65.4v0.4l0.1,4l-0.5,0.4c1.4,6.8,4.7,13.5,9.9,20.2
	c10.3,11.5,22.7,17.3,37.1,17.3c13.7,0,25.6-5.4,35.9-16.1c8.1-9.5,12.2-20.3,12.2-32.6v-0.2c0-3-1.4-7.8-4.1-14.3
	c-6.1-11.8-15.2-19.8-27.3-24.2V21.2z M34.6,67.5v0.2H34c-1.2,0.2-1.8,1-1.8,2.5v0.5H32c-0.3-0.8-0.5-1.5-0.5-2.2
	c0.2-1,0.7-1.5,1.5-1.5L34.6,67.5z M33.6,69.4h0.2l0.2,0.2v0.2L33.6,69.4z M35,70.8c5.9,5.2,11.1,7.8,15.5,7.8h0.3
	c5.7-0.4,8.5-1,8.5-1.8v-0.1l-0.2-0.2v-0.2l0.2-0.1c3.8,1.2,6.5,1.7,7.8,1.7c1.5,0,3.8-0.5,7.2-1.6c4.2,1.8,7.5,2.8,9.9,2.8
	c3.2,0,7.2-1.8,11.9-5.5l2.5-2.8V71c-0.8,2.4-2.8,4.6-5.8,6.7l-4.8,2.5c-5.5,4.7-12.5,7-20.9,7c-7.8,0-14.5-1.9-20-5.8
	c-3.9-1.2-6.5-3-7.7-5.4L35,70.8L35,70.8z M64.6,47.7c0.9,2.1,1.4,4.2,1.4,6.2v0.3c0,4.8-2.5,8.6-7.5,11.6c-1.9,0.9-3.8,1.4-5.7,1.4
	h-0.6c-4.5,0-8.3-2.3-11.3-6.9c-1.2-2.3-1.7-4.5-1.7-6.5c0-5.2,2.6-9.2,7.8-12.2c1.9-0.8,3.8-1.2,5.7-1.2
	C57.7,40.4,61.6,42.8,64.6,47.7z M48.4,95.1c0,0.7-0.5,1.2-1.5,1.4h-0.3c-0.8-0.2-1.3-0.7-1.3-1.4v-0.4c0.2-1,0.7-1.5,1.5-1.5
	C47.8,93.2,48.3,93.9,48.4,95.1z M46,53.5V54l0.2,1.2H48v-0.8c0-2.1,1.3-3.6,3.8-4.5l1-0.2c2.1,0,3.6,1.2,4.6,3.8l0.1,1.2v0.6
	l-0.1,0.1v0.2h1.5c0.2,0,0.4-0.5,0.4-1.4v-1.1c0-2.7-1.8-4.7-5.2-6l-1.4-0.1h-0.3c-2.9,0-5,1.7-6.2,5.2L46,53.5z M46.2,65.7
	c1.9,1.4,4,2.1,6.3,2.1c1.8,0,4-0.5,6.5-1.6c-1.7,1.6-3.5,2.5-5.3,2.5h-1c-2.2,0-4.4-1-6.6-2.9H46.2z M51.9,53.5
	c0.5-0.2,0.8-0.4,0.8-0.5v-1l-0.5-0.5h-0.4c-0.7,0-1,0.4-1,1.1C50.9,53.2,51.2,53.5,51.9,53.5z M64.4,80.9l-3.8,0.8v0.1
	c3.8,0.5,6.2,0.8,7.3,0.8c1.1,0,3.4-0.3,6.8-1v-0.2l-2-0.8c-2.7,0.9-4.5,1.4-5.3,1.4C66.7,81.9,65.7,81.5,64.4,80.9z M71.3,66.2
	c1.3,0.8,1.9,1.6,1.9,2.2v0.2c0,0.8-1.8,2-5.5,3.5c-3.1-0.5-4.6-1.4-4.6-2.8c-0.2-0.2-0.3-0.7-0.4-1.6v-0.1c0.1-0.8,0.5-1.2,1.2-1.2
	H64l-0.8,1v0.5c0,0.5,0.5,1,1.4,1.7c0-0.5,0.1-0.7,0.2-0.7h0.5l1.5,1.3l1.6,0.2h0.1c0.4-0.2,0.8-0.7,1.4-1.6l0.2-0.2h0.1l0.2,0.8
	l-0.1,0.2l0.1,0.3c1.5-0.4,2.2-0.9,2.2-1.6C72.5,67.9,72.1,67.2,71.3,66.2L71.3,66.2z M95,47.9c1.2,2.2,1.7,4.2,1.7,5.9v1.6
	c0,3.2-1.5,6.3-4.5,9.2c-2.7,2.2-5.6,3.3-8.8,3.3c-5.4,0-9.5-2.8-12.4-8.4c-0.7-2-1-3.7-1-5c0-4.8,2.2-8.6,6.7-11.5
	c2.3-1.2,4.5-1.8,6.8-1.8C88.2,41.2,92,43.5,95,47.9z M71.7,82.6v0.2h0.4v-0.2H71.7z M73.3,82.4v0.2h0.6v-0.2H73.3z M74.6,82.3
	L74.6,82.3l0.5,0.1v-0.1H74.6z M76,82.2v0.2h0.2v-0.2H76z M76.7,54.4c0.1,1.4,0.2,2.1,0.4,2.1l1.7,0.2l-0.1-0.2V55
	c0-1.9,1.3-3.4,3.8-4.4h1.1c2.5,0,4.1,1.7,4.6,5L88,56.8h0.9l0.8,0.2l0.2-1.8v-1.5c0-2.4-1.5-4.2-4.7-5.6l-2-0.2
	c-3.2,0-5.3,1.8-6.5,5.5L76.7,54.4z M76.8,66.6c2,1.3,4,2,6.1,2h0.3c1.8,0,3.9-0.5,6.3-1.6c-1.8,1.7-3.5,2.5-5.1,2.5h-1.2
	C81,69.5,78.9,68.5,76.8,66.6L76.8,66.6z M82.2,54c0.7-0.1,1-0.4,1-1v-0.2c0-0.5-0.3-0.8-0.9-0.8h-0.1c-0.7,0-1,0.3-1,0.8
	C81.2,53.6,81.5,54,82.2,54z M100,68.5c0.9,0.2,1.4,0.7,1.4,1.6c-0.2,1.4-0.5,2.1-0.8,2.1h-0.2v-0.8c0-1.5-0.5-2.3-1.6-2.3h-0.6
	v-0.2L100,68.5z M120.1,48.1c2.1-1.5,3.5-2.2,4.3-2.2l0.4,0.3c-0.7,4.1-1.4,6.1-2.2,6.1h-0.4v-0.1l0.5-1.2v-0.2h-0.3
	c-0.3,0-0.5,0.8-0.8,2.6l0.5,1.5l0.4,4.5c1.7-1.5,3-4.5,4-9l0.2-3.2v-0.4c0-2.1-0.5-3.6-1.6-4.7h-0.2c-1,0-2.7,1.5-5.2,4.6
	L120.1,48.1z"/>
</svg>
